<?xml version="1.0" encoding="utf-8"?>
<!-- Generator: Adobe Illustrator 17.1.0, SVG Export Plug-In . SVG Version: 6.00 Build 0)  -->
<!DOCTYPE svg PUBLIC "-//W3C//DTD SVG 1.1//EN" "http://www.w3.org/Graphics/SVG/1.1/DTD/svg11.dtd">
<svg version="1.1" id="Layer_1" xmlns="http://www.w3.org/2000/svg" xmlns:xlink="http://www.w3.org/1999/xlink" x="0px" y="0px"
	 viewBox="0 0 180.8 56.7" enable-background="new 0 0 180.8 56.7" xml:space="preserve">
<g>
	<path fill="#35A5C9" d="M31.6,51.4c0-11.1-16.4-11.6-16.4-22.7c0-12,17.1-11.1,17.1-21.7c0-2.9-1.8-5.4-4.3-6.5
		c-1-0.4-2.3-0.5-3.9-0.2C10.5,2.3,0,14.1,0,28.3C0,44,12.7,56.7,28.4,56.7C30.4,56.7,31.6,54.9,31.6,51.4z"/>
	<path fill="#35A5C9" d="M29.6,0c4,1.5,6.8,5.4,6.8,9.9c0,9.8-11.1,9.7-11.1,16.9c0,8,21.7,9.6,21.7,21.8c0,0.4,0,0.8-0.1,1.1
		c6-5.2,9.8-12.9,9.8-21.4C56.7,13.1,44.7,0.6,29.6,0z"/>
</g>
<g>
	<path fill="#3F403F" d="M78.7,20.4c0.6-1,0.9-2.2,0.9-3.7V9.3c0-0.9-0.1-1.7-0.2-2.4c-0.2-0.7-0.5-1.4-0.9-1.9
		c-0.4-0.5-1.1-0.9-1.8-1.2c-0.7-0.3-1.7-0.4-2.9-0.4h-5.6v33.4h3.4V22.5h1.1l4.9,14.2h3.8l-5.3-14.5C77.2,22,78.2,21.3,78.7,20.4z
		 M71.5,6.7h2c1,0,1.6,0.2,2,0.7c0.4,0.4,0.6,1.1,0.6,2v7.4c0,0.9-0.2,1.5-0.5,2c-0.3,0.4-1,0.7-2.1,0.7h-2V6.7z"/>
	<rect x="83.6" y="12.8" fill="#3F403F" width="3.3" height="24"/>
	<rect x="83.5" y="5.3" fill="#3F403F" width="3.3" height="3.9"/>
	<polygon fill="#3F403F" points="95.9,30.8 93.2,12.8 89.8,12.8 94.2,36.6 94.2,36.8 97.6,36.8 102,12.8 98.7,12.8 	"/>
	<path fill="#3F403F" d="M114.6,13.9c-0.4-0.5-1-0.9-1.7-1.2c-0.7-0.3-1.6-0.4-2.6-0.4c-1.1,0-1.9,0.1-2.6,0.4
		c-0.7,0.3-1.3,0.7-1.7,1.2c-0.4,0.5-0.7,1.1-0.9,1.8c-0.2,0.7-0.3,1.5-0.3,2.3v13.5c0,0.8,0.1,1.6,0.2,2.3c0.2,0.7,0.5,1.3,0.9,1.8
		c0.4,0.5,1,0.9,1.7,1.2c0.7,0.3,1.6,0.4,2.6,0.4c2.1,0,3.5-0.5,4.3-1.6c0.7-1,1.1-2.4,1.1-4.1v-3.3h-3.2v3.3c0,0.9-0.2,1.6-0.5,2.1
		c-0.3,0.5-0.9,0.7-1.7,0.7c-1.5,0-2.2-0.9-2.2-2.8v-6.5h7.6v-7c0-0.8-0.1-1.6-0.2-2.3C115.3,15.1,115,14.4,114.6,13.9z M108.6,15.9
		c0.3-0.5,0.9-0.7,1.7-0.7c0.8,0,1.4,0.2,1.7,0.7c0.3,0.5,0.5,1.2,0.5,2.2v4.4h-4.4V18C108.1,17.1,108.3,16.4,108.6,15.9z"/>
	<path fill="#3F403F" d="M124.2,12.8c-0.5,0.3-0.9,0.7-1.3,1.2l-0.6-1.2H120v24h3.3V19c0-1.2,0.3-2.1,0.8-2.8
		c0.5-0.6,1.4-0.9,2.6-0.7l0.2,0v-3.4h-0.2C125.6,12.2,124.8,12.4,124.2,12.8z"/>
	<path fill="#3F403F" d="M140.9,2.9c-1.1,0-2.1,0.1-2.8,0.4c-0.7,0.3-1.3,0.7-1.8,1.3c-0.4,0.5-0.8,1.2-0.9,1.9
		c-0.2,0.7-0.3,1.5-0.3,2.4v22.4c0,0.9,0.1,1.7,0.3,2.4c0.2,0.7,0.5,1.4,0.9,1.9c0.4,0.5,1,0.9,1.8,1.2c0.7,0.3,1.7,0.4,2.8,0.4
		c2.1,0,3.6-0.6,4.5-1.7c0.8-1.1,1.2-2.5,1.2-4.3v-4.4h-3.3v4.4c0,0.8-0.2,1.5-0.5,2.1c-0.3,0.5-1,0.8-1.9,0.8
		c-0.9,0-1.5-0.3-1.8-0.8c-0.4-0.6-0.5-1.3-0.5-2.1V8.9c0-0.9,0.2-1.6,0.5-2.1c0.3-0.5,0.9-0.8,1.9-0.8c0.9,0,1.5,0.3,1.8,0.8
		c0.4,0.6,0.6,1.3,0.6,2.1v3.8h3.3V8.9c0-1.7-0.4-3.2-1.2-4.3C144.5,3.5,143,2.9,140.9,2.9z"/>
	<rect x="150.5" y="5.3" fill="#3F403F" width="3.3" height="3.9"/>
	<rect x="150.6" y="12.8" fill="#3F403F" width="3.3" height="24"/>
	<path fill="#3F403F" d="M165.3,34.3c-0.2,0-0.5,0.1-0.9,0.1c-0.7,0-1.3-0.2-1.5-0.6c-0.3-0.4-0.4-1.1-0.4-2V15.7h3.7v-2.9h-3.7v-7
		l-0.3,0.1c-0.5,0.2-0.9,0.3-1.4,0.4c-0.5,0.1-1,0.2-1.5,0.4l-0.2,0v6.1h-2.3v2.9h2.3v16.1c0,1.8,0.4,3.1,1.1,4
		c0.7,0.9,2.1,1.4,4,1.4c0.3,0,0.6,0,1-0.1c0.4-0.1,0.7-0.2,0.9-0.3l0.1-0.1v-2.9l-0.3,0.1C165.8,34.2,165.5,34.2,165.3,34.3z"/>
	<path fill="#3F403F" d="M177.5,12.8l-2.8,17.3l-2.9-17.3h-3.4l4.7,23.8l-0.5,2.7c-0.4,1.7-1.2,2.6-2.4,2.6c-0.7,0-1.2-0.1-1.8-0.3
		l-0.3-0.1v3l0.2,0c0.2,0.1,0.5,0.1,0.9,0.2c0.4,0,0.7,0.1,1,0.1c1.7,0,3-0.4,3.9-1.3c0.8-0.8,1.4-2.2,1.7-4l5.1-26.7H177.5z"/>
</g>
<g>
	<path fill="#7F7F7F" d="M77.9,43.1c-0.2-0.4-0.6-0.7-0.9-1c-0.4-0.3-0.8-0.5-1.2-0.6c-0.4-0.1-0.9-0.2-1.4-0.2
		c-0.9,0-1.6,0.2-2.2,0.5c-0.6,0.3-1.1,0.8-1.5,1.3c-0.4,0.5-0.7,1.1-0.9,1.8c-0.2,0.7-0.3,1.4-0.3,2.1c0,0.7,0.1,1.4,0.3,2.1
		c0.2,0.7,0.5,1.3,0.9,1.8c0.4,0.5,0.9,1,1.5,1.3c0.6,0.3,1.4,0.5,2.2,0.5c0.6,0,1.2-0.1,1.6-0.3c0.5-0.2,0.9-0.5,1.3-0.9
		c0.4-0.4,0.6-0.8,0.9-1.3c0.2-0.5,0.4-1,0.4-1.6h1.2c-0.1,0.8-0.3,1.5-0.6,2.2c-0.3,0.6-0.7,1.2-1.1,1.6c-0.5,0.4-1,0.8-1.6,1
		c-0.6,0.2-1.3,0.4-2.1,0.4c-1,0-1.9-0.2-2.7-0.6c-0.8-0.4-1.4-0.9-1.9-1.5c-0.5-0.6-0.9-1.3-1.1-2.1c-0.3-0.8-0.4-1.7-0.4-2.6
		c0-0.9,0.1-1.8,0.4-2.6c0.3-0.8,0.6-1.5,1.1-2.2c0.5-0.6,1.1-1.1,1.9-1.5c0.8-0.4,1.7-0.6,2.7-0.6c0.6,0,1.2,0.1,1.8,0.3
		c0.6,0.2,1.1,0.5,1.6,0.8c0.5,0.4,0.9,0.8,1.2,1.3c0.3,0.5,0.5,1.1,0.6,1.8h-1.2C78.3,44,78.1,43.5,77.9,43.1z"/>
	<path fill="#7F7F7F" d="M87.2,40.5v5.6h7.7v-5.6h1.2v13h-1.2v-6.3h-7.7v6.3h-1.2v-13H87.2z"/>
	<path fill="#7F7F7F" d="M104,40.5v8c0,0.8,0.1,1.4,0.3,1.9c0.2,0.5,0.4,1,0.7,1.3c0.3,0.3,0.7,0.6,1.2,0.7c0.5,0.2,1,0.2,1.6,0.2
		c0.6,0,1.1-0.1,1.6-0.2c0.5-0.2,0.9-0.4,1.2-0.7c0.3-0.3,0.6-0.8,0.7-1.3c0.2-0.5,0.3-1.2,0.3-1.9v-8h1.2v8.3
		c0,0.7-0.1,1.3-0.3,1.9c-0.2,0.6-0.5,1.1-0.9,1.6c-0.4,0.4-0.9,0.8-1.6,1.1c-0.6,0.3-1.4,0.4-2.3,0.4c-0.9,0-1.7-0.1-2.3-0.4
		c-0.6-0.3-1.2-0.6-1.6-1.1c-0.4-0.4-0.7-1-0.9-1.6c-0.2-0.6-0.3-1.2-0.3-1.9v-8.3H104z"/>
	<path fill="#7F7F7F" d="M125.5,40.5c0.5,0,1,0.1,1.5,0.2c0.5,0.1,0.9,0.3,1.3,0.6c0.4,0.3,0.6,0.6,0.9,1.1c0.2,0.4,0.3,0.9,0.3,1.5
		c0,0.8-0.2,1.5-0.6,2.1c-0.4,0.6-1.1,1-1.9,1.2v0c0.4,0.1,0.8,0.2,1.1,0.3c0.3,0.2,0.5,0.4,0.7,0.6c0.2,0.3,0.3,0.5,0.4,0.9
		c0.1,0.3,0.1,0.7,0.2,1.1c0,0.2,0,0.5,0,0.8c0,0.3,0,0.6,0.1,1c0,0.3,0.1,0.6,0.2,0.9c0.1,0.3,0.2,0.5,0.3,0.7h-1.4
		c-0.1-0.1-0.1-0.3-0.2-0.4c0-0.2-0.1-0.4-0.1-0.5c0-0.2,0-0.4,0-0.6c0-0.2,0-0.3,0-0.5c0-0.5-0.1-0.9-0.1-1.4
		c-0.1-0.5-0.2-0.9-0.3-1.2c-0.2-0.4-0.4-0.6-0.8-0.9c-0.3-0.2-0.8-0.3-1.4-0.3h-4.7v5.8h-1.2v-13H125.5z M125.4,46.7
		c0.4,0,0.7-0.1,1.1-0.2c0.3-0.1,0.6-0.3,0.9-0.5c0.3-0.2,0.5-0.5,0.6-0.8c0.2-0.3,0.2-0.7,0.2-1.1c0-0.8-0.2-1.4-0.7-1.9
		c-0.5-0.5-1.2-0.7-2.1-0.7h-4.6v5.1H125.4z"/>
	<path fill="#7F7F7F" d="M144.8,43.1c-0.2-0.4-0.6-0.7-0.9-1c-0.4-0.3-0.8-0.5-1.2-0.6c-0.4-0.1-0.9-0.2-1.4-0.2
		c-0.9,0-1.6,0.2-2.2,0.5c-0.6,0.3-1.1,0.8-1.5,1.3c-0.4,0.5-0.7,1.1-0.9,1.8c-0.2,0.7-0.3,1.4-0.3,2.1c0,0.7,0.1,1.4,0.3,2.1
		c0.2,0.7,0.5,1.3,0.9,1.8c0.4,0.5,0.9,1,1.5,1.3c0.6,0.3,1.4,0.5,2.2,0.5c0.6,0,1.2-0.1,1.6-0.3c0.5-0.2,0.9-0.5,1.3-0.9
		c0.4-0.4,0.6-0.8,0.9-1.3c0.2-0.5,0.4-1,0.4-1.6h1.2c-0.1,0.8-0.3,1.5-0.6,2.2c-0.3,0.6-0.7,1.2-1.1,1.6c-0.5,0.4-1,0.8-1.6,1
		c-0.6,0.2-1.3,0.4-2.1,0.4c-1,0-1.9-0.2-2.7-0.6c-0.8-0.4-1.4-0.9-1.9-1.5c-0.5-0.6-0.9-1.3-1.1-2.1c-0.3-0.8-0.4-1.7-0.4-2.6
		c0-0.9,0.1-1.8,0.4-2.6c0.3-0.8,0.6-1.5,1.1-2.2c0.5-0.6,1.1-1.1,1.9-1.5c0.8-0.4,1.7-0.6,2.7-0.6c0.6,0,1.2,0.1,1.8,0.3
		c0.6,0.2,1.1,0.5,1.6,0.8c0.5,0.4,0.9,0.8,1.2,1.3c0.3,0.5,0.5,1.1,0.6,1.8h-1.2C145.2,44,145.1,43.5,144.8,43.1z"/>
	<path fill="#7F7F7F" d="M154.1,40.5v5.6h7.7v-5.6h1.2v13h-1.2v-6.3h-7.7v6.3h-1.2v-13H154.1z"/>
</g>
</svg>
