<?xml version="1.0" encoding="utf-8"?>
<svg xmlns="http://www.w3.org/2000/svg" viewBox="0 0 56.7 56.7" role="img" aria-label="River City Church mark">
  <g>
    <path fill="#35A5C9" d="M31.6,51.4c0-11.1-16.4-11.6-16.4-22.7c0-12,17.1-11.1,17.1-21.7c0-2.9-1.8-5.4-4.3-6.5
      c-1-0.4-2.3-0.5-3.9-0.2C10.5,2.3,0,14.1,0,28.3C0,44,12.7,56.7,28.4,56.7C30.4,56.7,31.6,54.9,31.6,51.4z"/>
    <path fill="#35A5C9" d="M29.6,0c4,1.5,6.8,5.4,6.8,9.9c0,9.8-11.1,9.7-11.1,16.9c0,8,21.7,9.6,21.7,21.8c0,0.4,0,0.8-0.1,1.1
      c6-5.2,9.8-12.9,9.8-21.4C56.7,13.1,44.7,0.6,29.6,0z"/>
  </g>
</svg>
